<?xml version="1.0" encoding="utf-8"?>
<!-- Generator: Adobe Illustrator 19.0.0, SVG Export Plug-In . SVG Version: 6.00 Build 0)  -->
<svg version="1.1" id="layer" xmlns="http://www.w3.org/2000/svg" xmlns:xlink="http://www.w3.org/1999/xlink" x="0px" y="0px"
	 viewBox="-153 -46 652 652" style="enable-background:new -153 -46 652 652;" xml:space="preserve">
<style type="text/css">
	.st0{fill:#BE8719;}
</style>
<path class="st0" d="M173.4,55.4c7.3,0,13.2-5.9,13.2-13.2c0-7.3-5.9-13.2-13.2-13.2c-7.3,0-13.2,5.9-13.2,13.2
	C160.2,49.5,166.1,55.4,173.4,55.4z M173.4,406.1L-121.7,529h590.2L173.4,406.1z M239.7,292.7v-51.8l-18.4-17.8v-63.3l9-9
	c-1.2-1.4-31.4-34.8-41.6-80.5h-31c-9.8,43.7-38,76.3-41.4,80.2l-0.1,0.1l9.2,9.1v63.3l-18.4,17.8v51.8
	C29.7,318.4-27.7,387.9-35.7,471.8l201.5-83.9l7.6-3.2l7.6,3.2l201.5,83.9C374.5,387.9,317.1,318.4,239.7,292.7z M193.1,180.5
	c0-3.4,1.2-8.2,7.3-8.2s7.3,4.8,7.3,8.2v52.1c-4.8-0.8-9.6-1.4-14.5-1.8V180.5z M163.6,177.1c0-4.8,1.7-11.4,10.1-11.4
	c8.5,0,10.1,6.7,10.1,11.4v53c-3.4-0.1-6.7-0.3-10.1-0.3c-3.4,0-6.8,0.1-10.1,0.3V177.1z M139.4,180.5c0-3.4,1.2-8.2,7.3-8.2
	c6.1,0,7.3,4.8,7.3,8.2v50.4c-4.9,0.4-9.7,1.1-14.5,1.9V180.5z"/>
</svg>
