<svg id="Calque_1" data-name="Calque 1" xmlns="http://www.w3.org/2000/svg" viewBox="0 0 483.25 366.02"><defs><style type="text/css">.cls-1{fill:#de0646;}.cls-2{fill:#fff;}.cls-3{fill:#b2b2b2;}</style></defs><title>PSE_logo</title><circle class="cls-1" cx="238.99" cy="146.48" r="118.03"/><path class="cls-2" d="M156.33,62.25h13.21v9.93A53,53,0,0,1,187.73,56a48.88,48.88,0,0,1,22.94-5.36q22.09,0,37.8,15.84a52.19,52.19,0,0,1,15.71,38.12q0,22.76-15.56,38.65t-37.56,15.88A50.67,50.67,0,0,1,188.3,154a57.23,57.23,0,0,1-18.76-15.28V194.3H156.33Zm53.34,1.18a39.27,39.27,0,0,0-29.15,12q-11.84,12-11.84,30A42.44,42.44,0,0,0,174,126.6a38.41,38.41,0,0,0,15.12,14.89,41.94,41.94,0,0,0,20.78,5.5,39.29,39.29,0,0,0,20.2-5.55,40.76,40.76,0,0,0,15.07-15.51,41.74,41.74,0,0,0,0-41.73,40.21,40.21,0,0,0-35.51-20.77Z"/><path class="cls-2" d="M323.91,64.36,315.67,75Q304,63.65,293.55,64.25a15.36,15.36,0,0,0-11.13,5.54,15.92,15.92,0,0,0-4.1,11.69,18.08,18.08,0,0,0,4.54,10.76q4.21,5.11,17.13,11.57,15.74,7.95,21.68,15.77a33.35,33.35,0,0,1,6.44,18.26q.83,14.55-7.79,25.17a29.83,29.83,0,0,1-22.41,11.41A37,37,0,0,1,280.1,171a39.14,39.14,0,0,1-14.53-11.45l8-11.33q11.21,12.55,23,11.88a18.91,18.91,0,0,0,13.65-6.67,19.59,19.59,0,0,0,.51-25.58q-4.1-4.79-17.93-11.64-14.84-7.39-20.47-15.1a32.88,32.88,0,0,1-6.22-18q-.77-13.4,7-22.74a27.39,27.39,0,0,1,20.39-10.06Q308.14,49.49,323.91,64.36Z"/><path class="cls-2" d="M278,249.41q-.65.64-1.31,1.25a50.61,50.61,0,0,1-16.27,10.11A56.87,56.87,0,0,1,240,264.24q-25.32,0-39.58-16.54t-14.27-37.41a55,55,0,0,1,12.1-35q15.33-19.53,41-19.53,26.47,0,42.28,20,11.23,14.1,11.43,35.21H199.69q.38,18.06,11.54,29.61a36.79,36.79,0,0,0,27.56,11.54,44.2,44.2,0,0,0,15.4-2.75A40.39,40.39,0,0,0,266.91,242q1-.88,2-2Zm.22-49.93q-2.67-10.62-7.77-17A36.79,36.79,0,0,0,257,172.27a41.5,41.5,0,0,0-17.64-3.89,38.08,38.08,0,0,0-26.22,9.77q-8,7.11-12.11,21.33Z"/><path class="cls-3" d="M28.45,316.75H43.66v3.76H32.92v4.36h9.86v3.48H32.92v5h11v3.76H28.45Z"/><path class="cls-3" d="M60.53,323.59A4.39,4.39,0,0,0,56.08,320c-4,0-5.53,3.42-5.53,7,0,3.39,1.51,6.81,5.53,6.81,2.73,0,4.27-1.88,4.62-4.56H65c-.46,5.07-4,8.32-8.95,8.32-6.3,0-10-4.7-10-10.57,0-6,3.7-10.74,10-10.74,4.47,0,8.23,2.62,8.77,7.32Z"/><path class="cls-3" d="M77.25,316.27c6.3,0,10,4.7,10,10.74,0,5.87-3.7,10.57-10,10.57s-10-4.7-10-10.57C67.25,321,71,316.27,77.25,316.27Zm0,17.55c4,0,5.53-3.42,5.53-6.81,0-3.56-1.51-7-5.53-7s-5.53,3.42-5.53,7C71.73,330.4,73.24,333.82,77.25,333.82Z"/><path class="cls-3" d="M90.36,316.75h4.47v16.58h9.91v3.76H90.36Z"/><path class="cls-3" d="M107.32,316.75h15.21v3.76H111.79v4.36h9.86v3.48h-9.86v5h11v3.76H107.32Z"/><path class="cls-3" d="M132.65,316.75h8.77c5.27,0,9.23,3.31,9.23,10.06,0,5.9-3,10.28-9.23,10.28h-8.77Zm4.47,16.58h4c2.59,0,5.07-1.6,5.07-6.1,0-4.1-1.42-6.72-5.87-6.72h-3.19Z"/><path class="cls-3" d="M153.79,316.75h4v4.36a4.58,4.58,0,0,1-4,4.79V324a2.62,2.62,0,0,0,1.88-2.88h-1.88Z"/><path class="cls-3" d="M161.8,316.75H177v3.76H166.27v4.36h9.86v3.48h-9.86v5h11v3.76H161.8Z"/><path class="cls-3" d="M193.88,323.59a4.39,4.39,0,0,0-4.44-3.56c-4,0-5.53,3.42-5.53,7,0,3.39,1.51,6.81,5.53,6.81,2.73,0,4.27-1.88,4.62-4.56h4.33c-.46,5.07-4,8.32-8.95,8.32-6.3,0-10-4.7-10-10.57,0-6,3.7-10.74,10-10.74,4.47,0,8.23,2.62,8.77,7.32Z"/><path class="cls-3" d="M210.61,316.27c6.3,0,10,4.7,10,10.74,0,5.87-3.7,10.57-10,10.57s-10-4.7-10-10.57C200.61,321,204.31,316.27,210.61,316.27Zm0,17.55c4,0,5.53-3.42,5.53-6.81,0-3.56-1.51-7-5.53-7s-5.53,3.42-5.53,7C205.08,330.4,206.59,333.82,210.61,333.82Z"/><path class="cls-3" d="M223.72,316.75h4.44l8.49,13.65h.06V316.75h4.19v20.34h-4.47L228,323.47h-.06v13.62h-4.19Z"/><path class="cls-3" d="M254,316.27c6.3,0,10,4.7,10,10.74,0,5.87-3.7,10.57-10,10.57s-10-4.7-10-10.57C244,321,247.71,316.27,254,316.27Zm0,17.55c4,0,5.53-3.42,5.53-6.81,0-3.56-1.51-7-5.53-7s-5.53,3.42-5.53,7C248.47,330.4,250,333.82,254,333.82Z"/><path class="cls-3" d="M267.11,316.75h6.3l4.76,14h.06l4.5-14H289v20.34h-4.19V322.68h-.06l-5,14.42h-3.45l-5-14.27h-.06v14.27h-4.19Z"/><path class="cls-3" d="M293,316.75h4.47v20.34H293Z"/><path class="cls-3" d="M301.47,316.75h15.21v3.76H305.95v4.36h9.86v3.48h-9.86v5h11v3.76H301.47Z"/><path class="cls-3" d="M326.81,316.75h8.77c5.27,0,9.23,3.31,9.23,10.06,0,5.9-3,10.28-9.23,10.28h-8.77Zm4.47,16.58h4c2.59,0,5.07-1.6,5.07-6.1,0-4.1-1.42-6.72-5.87-6.72h-3.19Z"/><path class="cls-3" d="M348,316.75h15.21v3.76H352.45v4.36h9.86v3.48h-9.86v5h11v3.76H348Z"/><path class="cls-3" d="M373.31,316.75h9.17c5.07,0,7,3.22,7,6.53s-2,6.52-7,6.52h-4.7v7.29h-4.47Zm4.47,9.57h3.48c2.08,0,3.93-.46,3.93-3s-1.85-3-3.93-3h-3.48Z"/><path class="cls-3" d="M395.82,316.75h4.59L408,337.09h-4.64l-1.54-4.53h-7.61l-1.6,4.53H388.1Zm-.43,12.48h5.27l-2.56-7.46H398Z"/><path class="cls-3" d="M409.84,316.75h11a5.59,5.59,0,0,1,6,5.61,5,5,0,0,1-3.22,5.1v.06c2.19.57,2.82,2.71,3,4.76.09,1.28.06,3.68.86,4.81h-4.47c-.54-1.28-.48-3.25-.71-4.87-.31-2.14-1.14-3.08-3.39-3.08h-4.47v7.95h-4.47Zm4.47,9.2h4.9c2,0,3.08-.85,3.08-2.91s-1.08-2.82-3.08-2.82h-4.9Z"/><path class="cls-3" d="M430.47,316.75h4.47v20.34h-4.47Z"/><path class="cls-3" d="M442,330.34c0,2.71,2.11,3.76,4.5,3.76,1.57,0,4-.46,4-2.54s-3-2.56-6-3.36-6.07-2-6.07-5.78c0-4.16,3.93-6.15,7.61-6.15,4.25,0,8.15,1.85,8.15,6.55h-4.33c-.14-2.45-1.88-3.08-4-3.08-1.42,0-3.08.6-3.08,2.31s1,1.77,6.07,3.08c1.48.37,6,1.31,6,5.93,0,3.73-2.93,6.52-8.46,6.52-4.5,0-8.72-2.22-8.66-7.24Z"/><path class="cls-1" d="M28.45,293.45h9.17c5.07,0,7,3.22,7,6.53s-2,6.52-7,6.52h-4.7v7.29H28.45ZM32.92,303H36.4c2.08,0,3.93-.46,3.93-3s-1.85-3-3.93-3H32.92Z"/><path class="cls-1" d="M50.3,293.45h4.59l7.61,20.34H57.85l-1.54-4.53H48.7l-1.6,4.53H42.58Zm-.43,12.48h5.27l-2.56-7.46h-.06Z"/><path class="cls-1" d="M63.66,293.45h11a5.59,5.59,0,0,1,6,5.61,5,5,0,0,1-3.22,5.1v.06c2.19.57,2.82,2.71,3,4.76.09,1.28.06,3.68.86,4.81H76.71c-.54-1.28-.48-3.25-.71-4.87-.31-2.14-1.14-3.08-3.39-3.08H68.14v7.95H63.66Zm4.47,9.2H73c2,0,3.08-.85,3.08-2.91S75,296.92,73,296.92h-4.9Z"/><path class="cls-1" d="M83.64,293.45h4.47v20.34H83.64Z"/><path class="cls-1" d="M94.49,307c0,2.71,2.11,3.76,4.5,3.76,1.57,0,4-.46,4-2.54s-3-2.56-6-3.36-6.07-2-6.07-5.78c0-4.16,3.93-6.15,7.61-6.15,4.25,0,8.15,1.85,8.15,6.55h-4.33c-.14-2.45-1.88-3.08-4-3.08-1.42,0-3.08.6-3.08,2.31s1,1.77,6.07,3.08c1.48.37,6,1.31,6,5.93,0,3.73-2.93,6.52-8.46,6.52-4.5,0-8.72-2.22-8.66-7.24Z"/><path class="cls-1" d="M118.25,307c0,2.71,2.11,3.76,4.5,3.76,1.57,0,4-.46,4-2.54s-3-2.56-6-3.36-6.07-2-6.07-5.78c0-4.16,3.93-6.15,7.61-6.15,4.25,0,8.15,1.85,8.15,6.55H126c-.14-2.45-1.88-3.08-4-3.08-1.42,0-3.08.6-3.08,2.31s1,1.77,6.07,3.08c1.48.37,6,1.31,6,5.93,0,3.73-2.93,6.52-8.46,6.52-4.5,0-8.72-2.22-8.66-7.24Z"/><path class="cls-1" d="M146.91,300.28a4.39,4.39,0,0,0-4.44-3.56c-4,0-5.53,3.42-5.53,7,0,3.39,1.51,6.81,5.53,6.81,2.73,0,4.27-1.88,4.62-4.56h4.33c-.46,5.07-4,8.32-8.95,8.32-6.3,0-10-4.7-10-10.57,0-6,3.7-10.74,10-10.74,4.47,0,8.23,2.62,8.77,7.32Z"/><path class="cls-1" d="M153.86,293.45h4.47v7.81h8.23v-7.81H171v20.34h-4.47V305h-8.23v8.78h-4.47Z"/><path class="cls-1" d="M183.49,293c6.3,0,10,4.7,10,10.74,0,5.87-3.7,10.57-10,10.57s-10-4.7-10-10.57C173.49,297.66,177.2,293,183.49,293Zm0,17.55c4,0,5.53-3.42,5.53-6.81,0-3.56-1.51-7-5.53-7s-5.53,3.42-5.53,7C178,307.09,179.48,310.51,183.49,310.51Z"/><path class="cls-1" d="M205.06,293c6.3,0,10,4.7,10,10.74,0,5.87-3.7,10.57-10,10.57s-10-4.7-10-10.57C195.06,297.66,198.77,293,205.06,293Zm0,17.55c4,0,5.53-3.42,5.53-6.81,0-3.56-1.51-7-5.53-7s-5.53,3.42-5.53,7C199.54,307.09,201,310.51,205.06,310.51Z"/><path class="cls-1" d="M217.52,293.45H222V310h9.91v3.76H217.52Z"/><path class="cls-1" d="M248.72,293c6.3,0,10,4.7,10,10.74,0,5.87-3.7,10.57-10,10.57s-10-4.7-10-10.57C238.72,297.66,242.43,293,248.72,293Zm0,17.55c4,0,5.53-3.42,5.53-6.81,0-3.56-1.51-7-5.53-7s-5.53,3.42-5.53,7C243.2,307.09,244.71,310.51,248.72,310.51Z"/><path class="cls-1" d="M261.18,293.45h14.3v3.76h-9.83v4.7h8.52v3.48h-8.52v8.4h-4.47Z"/><path class="cls-1" d="M283.34,293.45h15.21v3.76H287.81v4.36h9.86V305h-9.86v5h11v3.76H283.34Z"/><path class="cls-1" d="M314.76,300.28a4.39,4.39,0,0,0-4.44-3.56c-4,0-5.53,3.42-5.53,7,0,3.39,1.51,6.81,5.53,6.81,2.73,0,4.27-1.88,4.62-4.56h4.33c-.46,5.07-4,8.32-8.95,8.32-6.3,0-10-4.7-10-10.57,0-6,3.7-10.74,10-10.74,4.47,0,8.23,2.62,8.77,7.32Z"/><path class="cls-1" d="M330.83,293c6.3,0,10,4.7,10,10.74,0,5.87-3.7,10.57-10,10.57s-10-4.7-10-10.57C320.83,297.66,324.54,293,330.83,293Zm0,17.55c4,0,5.53-3.42,5.53-6.81,0-3.56-1.51-7-5.53-7s-5.53,3.42-5.53,7C325.3,307.09,326.81,310.51,330.83,310.51Z"/><path class="cls-1" d="M343.29,293.45h4.44l8.49,13.65h.06V293.45h4.19v20.34H356l-8.46-13.62h-.06v13.62h-4.19Z"/><path class="cls-1" d="M372.92,293c6.3,0,10,4.7,10,10.74,0,5.87-3.7,10.57-10,10.57s-10-4.7-10-10.57C362.92,297.66,366.62,293,372.92,293Zm0,17.55c4,0,5.53-3.42,5.53-6.81,0-3.56-1.51-7-5.53-7s-5.53,3.42-5.53,7C367.39,307.09,368.9,310.51,372.92,310.51Z"/><path class="cls-1" d="M385.37,293.45h6.3l4.76,14h.06l4.5-14h6.3v20.34h-4.19V299.37H403l-5,14.42H394.6l-5-14.27h-.06v14.27h-4.19Z"/><path class="cls-1" d="M410.61,293.45h4.47v20.34h-4.47Z"/><path class="cls-1" d="M432,300.28a4.39,4.39,0,0,0-4.44-3.56c-4,0-5.53,3.42-5.53,7,0,3.39,1.51,6.81,5.53,6.81,2.73,0,4.27-1.88,4.62-4.56h4.33c-.46,5.07-4,8.32-8.95,8.32-6.3,0-10-4.7-10-10.57,0-6,3.7-10.74,10-10.74,4.47,0,8.23,2.62,8.77,7.32Z"/><path class="cls-1" d="M442,307c0,2.71,2.11,3.76,4.5,3.76,1.57,0,4-.46,4-2.54s-3-2.56-6-3.36-6.07-2-6.07-5.78c0-4.16,3.93-6.15,7.61-6.15,4.25,0,8.15,1.85,8.15,6.55h-4.33c-.14-2.45-1.88-3.08-4-3.08-1.42,0-3.08.6-3.08,2.31s1,1.77,6.07,3.08c1.48.37,6,1.31,6,5.93,0,3.73-2.93,6.52-8.46,6.52-4.5,0-8.72-2.22-8.66-7.24Z"/></svg>