<svg xmlns="http://www.w3.org/2000/svg" version="1.1" width="600px" height="600px" viewBox="0 10 200 200"
     style="overflow:hidden!important; filter: drop-shadow(0px 0px 10px rgba(0,0,0,.25);">
    <g id="svga-group-wrapper">
        <g id="svga-group-humanwrap-move" transform="matrix(1,0,0,1,0,0)">
            <g id="svga-group-humanwrap">
                <g id="svga-group-hair-back-move"
                   transform="matrix(1,-2.856368900253737e-18,2.856368900253737e-18,1,0,0)">
                    <g id="svga-group-hair-back"/>
                </g>
                <g id="svga-group-humanbody-back">
                    <path id="SvgjsPath21482"
                          d="m170 180.3-27.3-6.9-18-9.9-1.5-28.2H76.8l-1.5 28.2-18 9.9-27.3 6.9-9.1 19.7-3 20h164.2l-3-20z"
                          fill="#f0c7b1" stroke-width="none" opacity="1"/>
                    <path id="SvgjsPath21483"
                          d="m76.8 135.3-1.5 28.2-18 9.9-27.3 6.9-9.1 19.7-3 20h14.6v-20l2.7-17.7 23.8-6.4 24.7-8.3 3.5-32.3z"
                          fill="#d19271" stroke-width="none" opacity="1"/>
                </g>
                <g id="svga-group-chinshadow-single">
                    <path id="SvgjsPath21478" d="m121.5 149.1 2.2-3.8-.5-10H76.8l-.8 15.9 13.8 9.6h14.8z" fill="#c27b55"
                          stroke-width="none" opacity="1"/>
                </g>
                <g id="svga-group-humanbody-front">
                    <path id="SvgjsPath21484" d="m92.8 168.3 2 7.9 6.9 4.6s-8.5-3-8.7-3.6c-.2-.6-.2-8.9-.2-8.9z"
                          fill="#d19271" stroke-width="none" opacity="1"/>
                </g>
                <g id="svga-group-clothes-single">
                    <path id="SvgjsPath21620"
                          d="m184.7 220-8.1-35.4-4.8-3.5-1.5-2-17.6-6.8-8.6-15.9-3.8-1.6-7.3-9-9.4-3.1.6 11-1.3 10.1-8.9 9.1-8.1 9.8-2.5 5-1.7-3.2-4.5-3.8-11.2-7.8-8.9-9.1-1.3-10.1.6-11-9.4 3.1-7.3 9-3.8 1.6-8.6 15.9-17.6 6.8-1.5 2-4.8 3.5-8.1 35.4z"
                          fill="#591956" stroke-width="none" opacity="1"/>
                    <path id="SvgjsPath21621"
                          d="m134.2 188.8-15 3.8-9.9.2-.1-1.7 1.3-.1-.7-2.3-3.2.3-.1 2.3.8-.1v1.6h-2.1l2.1.2.1 5.9-.7 7.4 1.6 7.5.3 4.8 2.6-1-.3-5.1-2-6.6.9-7.3-.3-5.6 9.7.7 15.8-4.1 16-12.2 2-5.3-3.2 4.1-15.6 12.6zm-32.2 4.3-2.5-.2.2-1.8.6.1 1.2-2.2-3.3-2.3-2 1.9 1.2 2.3h.1v1.9l-1.5-.1-26-6.9-15.8-11 1.9-11L59 160l11 18.7 17.7 7.2-14.8-7.9-8.1-12.4 2.2-19.8-7.2 8.9-3.8 1.7-8.6 15.8-17.7 6.8-1.5 2-4.8 3.5-8.1 35.5h10.2l1.3-14.3 3.3-18.1 2.9 2.6 2.6 13.9 1.2 15.9v-16.2l-2.6-15.3-2.2-4.3 1.4-1.7 16.7-6L69 187.3l26.8 6.2 1.5-.1-.1 3.4 1.4 9.9s-3 9.8-2.8 9.9c.3.2 1.7 2.8 1.8 2.6.1-.3 3.5-12.5 3.5-12.5l-1.9-10.4.3-3.1 2.5-.1zm-26.2-39.4.6-10.8-4 5.1-.7 8.4 5.4 7.5-1.3-10.2zm49.1 11 6.7-6.9-.7-10.8-7.3-4.3.6 11-1.3 10.2-8.9 9.1-8.1 9.8-2.5 5 6.5-8.5 15-14.6zm-18.1 22.4 22.9-5 11.2-13.4 3.2-12.3-3.8-1.7-2.4 13-8.6 13.1-22.5 6.3zm56.5 9.7.8 21.6.5-20.4 4.5-13.1-5.8 11.9z"
                          fill="#4a0d47" stroke-width="none" opacity="1"/>
                    <path id="SvgjsPath21622"
                          d="m137.4 165.7 1.2-10.5-6-6.2 1.4 10.3-10.3 16.1-14 8.7 18.6-4.5 9.1-13.9zm13.6 6.2-6.2-10.1c.2.6-2.1 9.5-2.1 9.5l-10.3 12.4-15.5 7.2 16.7-3.1 15.7-12.6 1.7-3.3zm24.8 14-3.7-1.9-2.3 5.6 3.9 9.3 3.9 19.2 4.1.2-5.9-32.4zm-7.7-6.5-14.4-4.8-2.5 5-8.3 5.6 19.4.6 4.5 1.2 3.7-5.6-2.4-2zM85 175.6l-10.1-10.3-3.7-7.4-1.4.6 3.1 11.6 11.6 9.1 14.4 5.6 3.1 3.9-3.3-5.6-13.7-7.5zm43.1-12.5-16.7 16.1-6.6 8.5 13.4-11.6 9.9-13z"
                          fill="#682865" stroke-width="none" opacity="1"/>
                </g>
                <g id="svga-group-head" transform="matrix(1,-2.856368900253737e-18,2.856368900253737e-18,1,0,0)">
                    <g id="svga-group-ears-left-move" transform="matrix(1,0,0,1,0,0)">
                        <g id="svga-group-ears-left">
                            <path id="SvgjsPath21499" d="m64.4 98.3-5.3-9.7-7-.9-2 7.2.4 8.9 7 11.4 6.1 4.5 3.8-11.6z"
                                  fill="#f0c7b1" stroke-width="none" opacity="1"/>
                            <path id="SvgjsPath21500"
                                  d="m58.4 101.2-4.1-9.8-1.9 5.1.4 5 2.6 6.1-1.6-9.4 1.5-.7 1.3 10.8 2 2.1z"
                                  fill="#d19271" stroke-width="none" opacity="1"/>
                            <path id="SvgjsPath21501"
                                  d="m60.7 101-3.2-11.6-5.4-1.7 7 .9 5.3 9.7 3 9.8-3.8 11.6-6.1-4.5 3.6.7z"
                                  fill="#e1ac8f" stroke-width="none" opacity="1"/>
                        </g>
                    </g>
                    <g id="svga-group-ears-right-move" transform="matrix(1,0,0,1,0,0)">
                        <g id="svga-group-ears-right">
                            <path id="SvgjsPath21502" d="m135.6 98.3 5.3-9.7 7-.9 2 7.2-.4 8.9-7 11.4-6.1 4.5-3.8-11.6z"
                                  fill="#f0c7b1" stroke-width="none" opacity="1"/>
                            <path id="SvgjsPath21503"
                                  d="m141.6 101.2 4.1-9.8 1.9 5.1-.4 5-2.6 6.1 1.6-9.4-1.5-.7-1.3 10.8-2 2.1z"
                                  fill="#d19271" stroke-width="none" opacity="1"/>
                            <path id="SvgjsPath21504"
                                  d="m139.3 101 3.2-11.6 5.4-1.7-7 .9-5.3 9.7-3 9.8 3.8 11.6 6.1-4.5-3.6.7z"
                                  fill="#e1ac8f" stroke-width="none" opacity="1"/>
                        </g>
                    </g>
                    <g id="svga-group-faceshape-wrap">
                        <g id="svga-group-faceshape-single">
                            <path id="SvgjsPath21464"
                                  d="M138.1 60c-6.9-11.6-19.7-19.5-19.7-19.5-7.2-1.5-18.4-2.3-18.4-2.3s-11.1.8-18.4 2.3c0 0-12.8 7.9-19.7 19.5 0 0-5.1 14.5-5.3 24.8l4.9 33.9 14.2 24.8 16.9 11.7h14.9l16.9-11.7 14.2-24.8 4.9-33.9c-.3-10.3-5.4-24.8-5.4-24.8z"
                                  fill="#f0c7b1" stroke-width="none" opacity="1"/>
                            <path id="SvgjsPath21465"
                                  d="m92.7 152.7-14.6-12.3s-11.4-20.9-11.8-21.7c-.4-.9-5-34.3-5-34.3.2-4.8 4.5-21.5 5-22.2 2.1-3.2 16.5-18 16.5-18l17.1-4.1 18.5.4c-7.2-1.5-18.4-2.3-18.4-2.3s-11.1.8-18.4 2.3c0 0-12.8 7.9-19.7 19.5 0 0-5.1 14.5-5.3 24.8l4.9 33.9 14.2 24.8 16.9 11.7h14.9l16.9-11.7-18 10.4-13.7-1.2z"
                                  fill="#d19271" stroke-width="none" opacity="1"/>
                        </g>
                    </g>
                    <g id="svga-group-mouth-single-move" transform="matrix(1,0,0,1,0,0)">
                        <g id="svga-group-mouth-single">
                            <path id="SvgjsPath21657"
                                  d="m84.99 125.5 2.75 3.94 12.37-.68 12.45.84 3.02-3.87-3.73 2.46-6.81-2.5-4.93 1.46-4.57-1.35-7.7 1.93z"
                                  fill="#da7c87" stroke-width="none" opacity="1" transform="translate(0 2)"/>
                            <path id="SvgjsPath21658"
                                  d="m89.12 131.92 1.15 2.64 10.05 2.86 10.83-3.61-10.89 2.15-9.41-2.31-1.73-1.73z"
                                  fill="#d19271" stroke-width="none" opacity="1" transform="translate(0 2)"/>
                        </g>
                    </g>
                    <g id="svga-group-eyes-left-move" transform="matrix(1,0,0,1,0,0)">
                        <g id="svga-group-eyes-left">
                            <g id="svga-group-eyesback-left">
                                <path id="SvgjsPath21543" d="m90.8 100-2.5-7L77 89.8 69.6 92l5.6 8.3z" fill="#ffffff"
                                      stroke-width="none" opacity="1"/>
                            </g>
                            <g id="svga-group-eyesiriswrapper-left" transform="matrix(1,0,0,1,0,0)">
                                <g id="svga-group-eyesiriscontrol-left" transform="matrix(1,0,0,1,0,0)">
                                    <g id="svga-group-eyesiris-left">
                                        <path id="SvgjsPath21583" d="m82.2 100.2-5.5-2-1-5.8 4.5-3.8 5.5 2.1 1 5.7z"
                                              fill="#7b5c33" stroke-width="none" opacity="1"/>
                                        <path id="SvgjsPath21584" d="m78.2 95.4.6-3.1 3-1 2.4 2.1-.7 3.1-3 1z"
                                              fill="#000000" stroke-width="none" opacity="1"/>
                                        <path id="SvgjsPath21585" d="m78 91.7 2.2 2.1.6-.4-1.2-2.7z" fill="#ffffff"
                                              stroke-width="none" opacity="1"/>
                                        <path id="SvgjsPath21586" d="m82.1 96.4.5 1 .8-.4-.4-1z" fill="#ffffff"
                                              stroke-width="none" opacity="1"/>
                                    </g>
                                </g>
                            </g>
                            <g id="svga-group-eyesfront-left">
                                <path id="SvgjsPath21551"
                                      d="M67.1 89.3v11.9l7.9 8.4h11.2l7.9-8.4V89.3l-7.9-8.4H75l-7.9 8.4zm2.5 2.7 7.4-2.2L88.3 93l2.5 7-15.6.3-5.6-8.3z"
                                      fill="#f0c7b1" stroke-width="none" opacity="1"/>
                                <path id="SvgjsPath21552" d="m91.2 101.3-2.1-8.9-6.5-2.6-6.2-1-8.4 3.7 9-2.5 11 3.3z"
                                      fill="#000000" stroke-width="none" opacity="1"/>
                            </g>
                        </g>
                    </g>
                    <g id="svga-group-eyes-right-move" transform="matrix(1,0,0,1,0,0)">
                        <g id="svga-group-eyes-right">
                            <g id="svga-group-eyesback-right">
                                <path id="SvgjsPath21544" d="m109.2 100 2.5-7 11.3-3.2 7.4 2.2-5.6 8.3z" fill="#ffffff"
                                      stroke-width="none" opacity="1"/>
                            </g>
                            <g id="svga-group-eyesiriswrapper-right" transform="matrix(1,0,0,1,0,0)">
                                <g id="svga-group-eyesiriscontrol-right" transform="matrix(1,0,0,1,0,0)">
                                    <g id="svga-group-eyesiris-right">
                                        <path id="SvgjsPath21587" d="m119.8 100.2-5.5-2-1-5.8 4.5-3.8 5.5 2.1 1 5.7z"
                                              fill="#7b5c33" stroke-width="none" opacity="1"/>
                                        <path id="SvgjsPath21588" d="m115.8 95.4.7-3.1 3-1 2.3 2.1-.6 3.1-3 1z"
                                              fill="#000000" stroke-width="none" opacity="1"/>
                                        <path id="SvgjsPath21589" d="m115.7 91.7 2.2 2.1.6-.4-1.2-2.7z" fill="#ffffff"
                                              stroke-width="none" opacity="1"/>
                                        <path id="SvgjsPath21590" d="m119.7 96.4.6 1 .8-.4-.4-1z" fill="#ffffff"
                                              stroke-width="none" opacity="1"/>
                                    </g>
                                </g>
                            </g>
                            <g id="svga-group-eyesfront-right">
                                <path id="SvgjsPath21553"
                                      d="M125 80.8h-11.2l-7.9 8.4v11.9l7.9 8.4H125l7.9-8.4V89.3l-7.9-8.5zm-.2 19.5-15.6-.3 2.5-7 11.3-3.2 7.4 2.2-5.6 8.3z"
                                      fill="#f0c7b1" stroke-width="none" opacity="1"/>
                                <path id="SvgjsPath21556" d="m108.8 101.3 2.1-8.9 6.5-2.6 6.2-1 8.4 3.7-9-2.5-11 3.3z"
                                      fill="#000000" stroke-width="none" opacity="1"/>
                            </g>
                        </g>
                    </g>
                    <g id="svga-group-facehighlight-single"/>
                    <g id="svga-group-eyebrows-left-move" transform="matrix(1,0,0,1,0,0)">
                        <g id="svga-group-eyebrows-left-rotate" transform="matrix(1,0,0,1,0,0)">
                            <g id="svga-group-eyebrows-left">
                                <path id="SvgjsPath21635"
                                      d="m94 85.8-.6 2.4-2.4 1.6-13.1-7.1-7.9-.2-5.6 4.1 4.8-6 8.5-1.9 10.2 3.5z"
                                      fill="#2a232b" stroke-width="none" opacity="1"/>
                                <path id="SvgjsPath21636"
                                      d="m90.4 83.7.8.5-.5 3.2-.3-3.7zm-6.2-2.8 1.5 3.1-2.1-3.2.6.1zm3.7 1.3.4.2c.2 1.6.5 4.3.5 4.3L87.3 82l.6.2zm-6.3-2.1.8 1.7-2.2-2.2 1.4.5zM69 82.2c.1 0 0 0 0 0zm-1.8 1c.8-.4 1.5-.8 1.8-.9-.3.2-1.6 1.3-2.9 2.2l1.1-1.3zm6.7-3.6 1.8 2-2.3-1.9.5-.1zm-4.7 1 1.7-.4 2.6.9c.1 0-2.4-.3-4.3-.5z"
                                      fill="#3a353a" stroke-width="none" opacity="1"/>
                            </g>
                        </g>
                    </g>
                    <g id="svga-group-eyebrows-right-move" transform="matrix(1,0,0,1,0,0)">
                        <g id="svga-group-eyebrows-right-rotate" transform="matrix(1,0,0,1,0,0)">
                            <g id="svga-group-eyebrows-right">
                                <path id="SvgjsPath21637"
                                      d="m106 85.8.6 2.4 2.4 1.6 13.1-7.1 7.9-.2 5.6 4.1-4.8-6-8.5-1.9-10.2 3.5z"
                                      fill="#2a232b" stroke-width="none" opacity="1"/>
                                <path id="SvgjsPath21638"
                                      d="m109.6 83.7-.8.5.5 3.2.3-3.7zm6.2-2.8-1.5 3.1 2.1-3.2-.6.1zm-3.7 1.3-.4.2c-.2 1.6-.5 4.3-.5 4.3l1.5-4.8-.6.3zm6.3-2.1-.8 1.7 2.2-2.2-1.4.5zm12.6 2.1c-.1 0 0 0 0 0zm1.8 1c-.8-.4-1.5-.8-1.8-.9.4.2 1.6 1.3 2.9 2.2l-1.1-1.3zm-6.7-3.6-1.8 2 2.3-1.9-.5-.1zm4.7 1-1.7-.4-2.6.9c-.1 0 2.3-.3 4.3-.5z"
                                      fill="#3a353a" stroke-width="none" opacity="1"/>
                            </g>
                        </g>
                    </g>
                    <g id="svga-group-beardwrap">
                        <g id="svga-group-beard-single-move" transform="matrix(1,0,0,1,0,0)">
                            <g id="svga-group-beard-single"/>
                        </g>
                    </g>
                    <g id="svga-group-mustache-single-move" transform="matrix(1,0,0,1,0,0)">
                        <g id="svga-group-mustache-single"/>
                    </g>
                    <g id="svga-group-nose-single-move" transform="matrix(1,0,0,1,0,0)">
                        <g id="svga-group-nose-single">
                            <path id="SvgjsPath21672"
                                  d="m104.02 101.62 6.37 11.09-2.65 3.58-2.86-2.01-1.86 3.72h-6.3l-1.79-3.72-2.93 1.86-2.58-3.65 6.73-11.37 3.86-1.65z"
                                  fill="#f0c7b1" stroke-width="none" opacity="1" transform="translate(0 1)"/>
                            <path id="SvgjsPath21673"
                                  d="m104.31 101.38-1.02-.41 6.61 11.51-2.05 2.93-1.77-1.21.28-1.31-1.4.6-2.05 4.04-2.7.1-3.2-.1-2.05-4.04-1.4-.6.28 1.31-1.77 1.21-2.04-2.93 6.61-11.51.42-13.8-1.45 14.21-6.7 11.3 3.26 4.24 2.79-2.01 1.58 3.53h6.84l1.58-3.53 2.8 2.01 3.26-4.24z"
                                  fill="#d19271" stroke-width="none" opacity="1" transform="translate(0 1)"/>
                            <path id="SvgjsPath21674"
                                  d="m96.51 113.01 1.67.79 3.93.1 1.96-.89-.74-3.01-1.27-3.98-2.6 5.23z" fill="#f8d5c3"
                                  stroke-width="none" opacity="1" transform="translate(0 1)"/>
                        </g>
                    </g>
                    <g id="svga-group-hair-front">
                        <path id="SvgjsPath21692"
                              d="m52.3 65.2-7.5 17 6.3-4.9s-1 5.2-2.9 9.9c-1.7 4.2-3.8 8.8-5.6 11.2 0 0 3.9-1.4 6.5-4.6l.5 10.6L57.4 88l6.1 11 1-15.5 2-7.6 2.2-8.7 2.6 12.1.9-12.5 3.7-5.2 9 1.2 10.2-1.4 8.4 2.6 11.6 8.4-4.7-12.4 9.7 2.2 7 6.4 4.7 11.7.6-10.9 4.7 15.8 5.1 13-.3-9.2 4.4 6.1 7.2 8.4-5.3-15.3 6.1 6.6-2.9-10.6-.8-9.7 6.1 4.8-6.1-13.4-8.9-7.6 14.2 4.5-18.7-15 13.5 3.2-13-9.8-13-3.2 1.1-5.8 10-5.3-15.1 3.2-10.9 3.9 4.2-11.6-11.5 10.4 1.2-7.4-8.3 9.7 1.8-6.8L86.7 38l.6-5.6-3.5 4.1 1.3-7.9-5.9 7.9-.2-5.4-7.6 10.1-1.8-4.3-1.3 5.8-6.1-11.2.8 16.8-5.7-8.7.7 12.8-10.5 9.8 10.9-4.8-6.1 7.8z"
                              fill="#2a232b" stroke-width="none" opacity="1"/>
                        <path id="SvgjsPath21693"
                              d="m77.3 58.8 10.3.7 13.7-3.4 9.4-10.6L116 42l-7.7 1.7-7 9.4s-13 4.3-13.7 4.3c-.7 0-10.3 1.4-10.3 1.4zm-2.2-4 7-5 2.7-6.5-4.1 6-5.6 5.5zm-6.5-3.2 7.7-4.6 4.6-5.3-3.6 6.7-8.7 3.2zm-5-14.9L65.5 49l-.7 7.5-2-8.1.8-11.7zM47.3 62.2l10.9-4.8 4.9-.5-5-1.7-10.8 7zm25.9-1.7L70.5 66v5.3l-1.7-6 4.4-4.8zm-7.7 6.8-4.3 14 1.4 13.9L59 81l6.5-13.7zm-15.2 32.9 6-12.8 1.5-10.6-3.6 10.8-3.9 12.6zm46.5-40.4 9.9 3.1 6.3 6.7-4.6-8.7-11.6-1.1zm13.2-4.1s11.1 3.8 11.8 3.8 15.4 1.2 15.4 1.2L142 62l-5.3-3.4-14.9-.7-11.8-2.2zm7.5-11.3 5.3-3.1 3.1-9-4.5 8-3.9 4.1zm18.3 22.4c0 .7.5 11.8.5 11.8l4.6 12.8-2.2-13-2.9-11.6zm6 3.1s6 8.2 6.5 9.9c.5 1.7 3.9 10.3 3.9 10.3l-5.5-7.9-4.9-12.3zm-22.9-21.2c.7-.7 18-4.3 18-4.3l13.8 6.7-13.5-3.2-18.3.8z"
                              fill="#3a353a" stroke-width="none" opacity="1"/>
                    </g>
                    <g id="svga-group-glasses-single-move" transform="matrix(1,0,0,1,0,0)">
                        <g id="svga-group-glasses-single"
                           transform="matrix(1.1500006000000005,0,0,1.1500006000000005,0,0)"/>
                    </g>
                </g>
            </g>
        </g>
        <rect id="svga-credit-rect" width="200" height="15" x="0" y="185" fill="#ecf0f1" opacity="0.5"
              style="display: none;"/>
        <text id="svga-credit-text" font-family="Avenir Next, Roboto, Helvetica, Arial, sans-serif" font-size="10px"
              text-anchor="start" font-weight="400" size="10px" anchor="start" weight="400" fill="#333333"
              x="33.40447998046875" y="182.60824704170227" style="display: none;">
            <tspan id="SvgjsTspan21463" dy="13" x="33.40447998046875">Created on AvatarMaker.com</tspan>
        </text>
    </g>
    <defs id="SvgjsDefs21410"/>
</svg>